<svg width="130" height="26" viewBox="0 0 130 26" fill="none" xmlns="http://www.w3.org/2000/svg">
<path d="M12.6 25.384C10.8933 25.384 9.31467 25.0747 7.864 24.456C6.41333 23.8373 5.144 22.9733 4.056 21.864C2.968 20.7547 2.11467 19.4533 1.496 17.96C0.898667 16.4667 0.6 14.8347 0.6 13.064C0.6 11.2933 0.888 9.66133 1.464 8.168C2.06133 6.65333 2.89333 5.352 3.96 4.264C5.048 3.15467 6.31733 2.30133 7.768 1.704C9.21867 1.08533 10.7973 0.775999 12.504 0.775999C14.2107 0.775999 15.736 1.064 17.08 1.64C18.4453 2.216 19.5973 2.984 20.536 3.944C21.4747 4.88267 22.1467 5.91733 22.552 7.048L18.68 8.904C18.232 7.66667 17.4747 6.664 16.408 5.896C15.3413 5.128 14.04 4.744 12.504 4.744C11.0107 4.744 9.688 5.096 8.536 5.8C7.40533 6.504 6.52 7.47467 5.88 8.712C5.26133 9.94933 4.952 11.4 4.952 13.064C4.952 14.728 5.272 16.1893 5.912 17.448C6.57333 18.6853 7.48 19.656 8.632 20.36C9.784 21.064 11.1067 21.416 12.6 21.416C13.816 21.416 14.936 21.1813 15.96 20.712C16.984 20.2213 17.8053 19.5387 18.424 18.664C19.0427 17.768 19.352 16.712 19.352 15.496V13.672L21.336 15.4H12.504V11.72H23.704V14.12C23.704 15.9547 23.3947 17.576 22.776 18.984C22.1573 20.392 21.3147 21.576 20.248 22.536C19.2027 23.4747 18.0187 24.1893 16.696 24.68C15.3733 25.1493 14.008 25.384 12.6 25.384ZM37.9318 25.384C36.1824 25.384 34.5504 25.0747 33.0358 24.456C31.5211 23.8373 30.1984 22.9733 29.0678 21.864C27.9371 20.7547 27.0518 19.4533 26.4118 17.96C25.7931 16.4453 25.4838 14.8133 25.4838 13.064C25.4838 11.2933 25.7931 9.66133 26.4118 8.168C27.0304 6.67467 27.9051 5.37333 29.0358 4.264C30.1664 3.15467 31.4891 2.30133 33.0038 1.704C34.5184 1.08533 36.1611 0.775999 37.9318 0.775999C39.7024 0.775999 41.3451 1.08533 42.8598 1.704C44.3744 2.32266 45.6971 3.18667 46.8278 4.296C47.9584 5.384 48.8331 6.67467 49.4518 8.168C50.0918 9.66133 50.4118 11.2933 50.4118 13.064C50.4118 14.8133 50.0918 16.4453 49.4518 17.96C48.8118 19.4533 47.9264 20.7547 46.7958 21.864C45.6651 22.9733 44.3424 23.8373 42.8278 24.456C41.3344 25.0747 39.7024 25.384 37.9318 25.384ZM37.9318 21.416C39.1051 21.416 40.1824 21.2133 41.1638 20.808C42.1451 20.3813 42.9984 19.7947 43.7238 19.048C44.4704 18.3013 45.0358 17.416 45.4198 16.392C45.8251 15.368 46.0278 14.2587 46.0278 13.064C46.0278 11.8693 45.8251 10.7707 45.4198 9.768C45.0358 8.744 44.4704 7.85867 43.7238 7.112C42.9984 6.344 42.1451 5.75733 41.1638 5.352C40.1824 4.94667 39.1051 4.744 37.9318 4.744C36.7798 4.744 35.7131 4.94667 34.7318 5.352C33.7504 5.75733 32.8864 6.344 32.1398 7.112C31.4144 7.85867 30.8491 8.744 30.4438 9.768C30.0384 10.7707 29.8358 11.8693 29.8358 13.064C29.8358 14.2587 30.0384 15.368 30.4438 16.392C30.8491 17.416 31.4144 18.3013 32.1398 19.048C32.8864 19.7947 33.7504 20.3813 34.7318 20.808C35.7131 21.2133 36.7798 21.416 37.9318 21.416ZM53.3215 25V1.16H62.1855C63.8068 1.16 65.2362 1.45867 66.4735 2.056C67.7322 2.632 68.7135 3.48533 69.4175 4.616C70.1215 5.72533 70.4735 7.08 70.4735 8.68C70.4735 10.3227 70.0788 11.72 69.2895 12.872C68.5215 14.024 67.4762 14.8773 66.1535 15.432L71.6255 25H66.6975L60.8415 14.536L63.6575 16.2H57.6735V25H53.3215ZM57.6735 12.36H62.2495C63.0388 12.36 63.7215 12.2107 64.2975 11.912C64.8735 11.592 65.3215 11.1547 65.6415 10.6C65.9615 10.0453 66.1215 9.40533 66.1215 8.68C66.1215 7.93333 65.9615 7.29333 65.6415 6.76C65.3215 6.20533 64.8735 5.77867 64.2975 5.48C63.7215 5.16 63.0388 5 62.2495 5H57.6735V12.36ZM73.5178 25V1.16H89.3578V5H77.8698V11.112H88.7178V14.952H77.8698V21.16H89.3578V25H73.5178ZM91.589 25V1.16H94.981L108.101 18.824L106.341 19.176V1.16H110.693V25H107.269L94.341 7.208L95.941 6.856V25H91.589ZM118.572 25V5H112.396V1.16H129.036V5H122.956V25H118.572Z" fill="#3563E9"/>
</svg>
